<?xml version="1.0" encoding="UTF-8" standalone="no"?>
<!DOCTYPE svg PUBLIC "-//W3C//DTD SVG 1.1//EN"
 "http://www.w3.org/Graphics/SVG/1.1/DTD/svg11.dtd">
<!-- Generated by graphviz version 2.43.0 (0)
 -->
<!-- Title: %3 Pages: 1 -->
<svg width="2029pt" height="476pt"
 viewBox="0.00 0.00 2028.61 476.00" xmlns="http://www.w3.org/2000/svg" xmlns:xlink="http://www.w3.org/1999/xlink">
<g id="graph0" class="graph" transform="scale(1 1) rotate(0) translate(4 472)">
<title>%3</title>
<polygon fill="white" stroke="transparent" points="-4,4 -4,-472 2024.61,-472 2024.61,4 -4,4"/>
<!-- [root] aws_instance.Jenkins_EC2_Instance (expand) -->
<g id="node1" class="node">
<title>[root] aws_instance.Jenkins_EC2_Instance (expand)</title>
<polygon fill="none" stroke="black" points="579.98,-324 364.98,-324 364.98,-288 579.98,-288 579.98,-324"/>
<text text-anchor="middle" x="472.48" y="-302.3" font-family="Times,serif" font-size="14.00">aws_instance.Jenkins_EC2_Instance</text>
</g>
<!-- [root] aws_key_pair.generated (expand) -->
<g id="node2" class="node">
<title>[root] aws_key_pair.generated (expand)</title>
<polygon fill="none" stroke="black" points="697.98,-252 550.98,-252 550.98,-216 697.98,-216 697.98,-252"/>
<text text-anchor="middle" x="624.48" y="-230.3" font-family="Times,serif" font-size="14.00">aws_key_pair.generated</text>
</g>
<!-- [root] aws_instance.Jenkins_EC2_Instance (expand)&#45;&gt;[root] aws_key_pair.generated (expand) -->
<g id="edge1" class="edge">
<title>[root] aws_instance.Jenkins_EC2_Instance (expand)&#45;&gt;[root] aws_key_pair.generated (expand)</title>
<path fill="none" stroke="black" d="M509.66,-287.88C530.35,-278.35 556.28,-266.41 578.26,-256.28"/>
<polygon fill="black" stroke="black" points="579.8,-259.43 587.42,-252.07 576.87,-253.07 579.8,-259.43"/>
</g>
<!-- [root] aws_security_group.jenkins_security_group (expand) -->
<g id="node6" class="node">
<title>[root] aws_security_group.jenkins_security_group (expand)</title>
<polygon fill="none" stroke="black" points="370.48,-180 114.48,-180 114.48,-144 370.48,-144 370.48,-180"/>
<text text-anchor="middle" x="242.48" y="-158.3" font-family="Times,serif" font-size="14.00">aws_security_group.jenkins_security_group</text>
</g>
<!-- [root] aws_instance.Jenkins_EC2_Instance (expand)&#45;&gt;[root] aws_security_group.jenkins_security_group (expand) -->
<g id="edge2" class="edge">
<title>[root] aws_instance.Jenkins_EC2_Instance (expand)&#45;&gt;[root] aws_security_group.jenkins_security_group (expand)</title>
<path fill="none" stroke="black" d="M469.57,-287.98C465.24,-267.87 455.15,-234.79 433.48,-216 416.91,-201.63 396.75,-191.13 375.81,-183.47"/>
<polygon fill="black" stroke="black" points="376.74,-180.09 366.15,-180.14 374.47,-186.71 376.74,-180.09"/>
</g>
<!-- [root] local_file.private_key_pem (expand) -->
<g id="node7" class="node">
<title>[root] local_file.private_key_pem (expand)</title>
<polygon fill="none" stroke="black" points="1134.48,-252 968.48,-252 968.48,-216 1134.48,-216 1134.48,-252"/>
<text text-anchor="middle" x="1051.48" y="-230.3" font-family="Times,serif" font-size="14.00">local_file.private_key_pem</text>
</g>
<!-- [root] aws_instance.Jenkins_EC2_Instance (expand)&#45;&gt;[root] local_file.private_key_pem (expand) -->
<g id="edge3" class="edge">
<title>[root] aws_instance.Jenkins_EC2_Instance (expand)&#45;&gt;[root] local_file.private_key_pem (expand)</title>
<path fill="none" stroke="black" d="M580.21,-289.09C583,-288.72 585.76,-288.36 588.48,-288 716.39,-271.31 864.57,-254.85 958.15,-244.81"/>
<polygon fill="black" stroke="black" points="958.59,-248.28 968.16,-243.74 957.85,-241.32 958.59,-248.28"/>
</g>
<!-- [root] provider[&quot;registry.terraform.io/hashicorp/aws&quot;] -->
<g id="node8" class="node">
<title>[root] provider[&quot;registry.terraform.io/hashicorp/aws&quot;]</title>
<polygon fill="none" stroke="black" points="367.48,-108 114.94,-90 367.48,-72 620.02,-90 367.48,-108"/>
<text text-anchor="middle" x="367.48" y="-86.3" font-family="Times,serif" font-size="14.00">provider[&quot;registry.terraform.io/hashicorp/aws&quot;]</text>
</g>
<!-- [root] aws_key_pair.generated (expand)&#45;&gt;[root] provider[&quot;registry.terraform.io/hashicorp/aws&quot;] -->
<g id="edge4" class="edge">
<title>[root] aws_key_pair.generated (expand)&#45;&gt;[root] provider[&quot;registry.terraform.io/hashicorp/aws&quot;]</title>
<path fill="none" stroke="black" d="M625.68,-215.7C626.07,-195.64 623.41,-162.92 604.48,-144 585.21,-124.75 525.02,-111.43 470.12,-102.96"/>
<polygon fill="black" stroke="black" points="470.35,-99.45 459.94,-101.43 469.31,-106.38 470.35,-99.45"/>
</g>
<!-- [root] tls_private_key.generated (expand) -->
<g id="node13" class="node">
<title>[root] tls_private_key.generated (expand)</title>
<polygon fill="none" stroke="black" points="896.98,-180 741.98,-180 741.98,-144 896.98,-144 896.98,-180"/>
<text text-anchor="middle" x="819.48" y="-158.3" font-family="Times,serif" font-size="14.00">tls_private_key.generated</text>
</g>
<!-- [root] aws_key_pair.generated (expand)&#45;&gt;[root] tls_private_key.generated (expand) -->
<g id="edge5" class="edge">
<title>[root] aws_key_pair.generated (expand)&#45;&gt;[root] tls_private_key.generated (expand)</title>
<path fill="none" stroke="black" d="M672.18,-215.88C699.43,-206.09 733.78,-193.77 762.45,-183.47"/>
<polygon fill="black" stroke="black" points="763.7,-186.74 771.93,-180.07 761.34,-180.15 763.7,-186.74"/>
</g>
<!-- [root] aws_s3_bucket.my&#45;new&#45;S3&#45;bucket (expand) -->
<g id="node3" class="node">
<title>[root] aws_s3_bucket.my&#45;new&#45;S3&#45;bucket (expand)</title>
<polygon fill="none" stroke="black" points="595.98,-180 388.98,-180 388.98,-144 595.98,-144 595.98,-180"/>
<text text-anchor="middle" x="492.48" y="-158.3" font-family="Times,serif" font-size="14.00">aws_s3_bucket.my&#45;new&#45;S3&#45;bucket</text>
</g>
<!-- [root] aws_s3_bucket.my&#45;new&#45;S3&#45;bucket (expand)&#45;&gt;[root] provider[&quot;registry.terraform.io/hashicorp/aws&quot;] -->
<g id="edge6" class="edge">
<title>[root] aws_s3_bucket.my&#45;new&#45;S3&#45;bucket (expand)&#45;&gt;[root] provider[&quot;registry.terraform.io/hashicorp/aws&quot;]</title>
<path fill="none" stroke="black" d="M461.9,-143.88C444.26,-134 421.98,-121.52 403.5,-111.17"/>
<polygon fill="black" stroke="black" points="405.2,-108.11 394.76,-106.28 401.78,-114.22 405.2,-108.11"/>
</g>
<!-- [root] random_id.randomness (expand) -->
<g id="node12" class="node">
<title>[root] random_id.randomness (expand)</title>
<polygon fill="none" stroke="black" points="782.98,-108 637.98,-108 637.98,-72 782.98,-72 782.98,-108"/>
<text text-anchor="middle" x="710.48" y="-86.3" font-family="Times,serif" font-size="14.00">random_id.randomness</text>
</g>
<!-- [root] aws_s3_bucket.my&#45;new&#45;S3&#45;bucket (expand)&#45;&gt;[root] random_id.randomness (expand) -->
<g id="edge7" class="edge">
<title>[root] aws_s3_bucket.my&#45;new&#45;S3&#45;bucket (expand)&#45;&gt;[root] random_id.randomness (expand)</title>
<path fill="none" stroke="black" d="M545.53,-143.97C576.25,-134.1 615.12,-121.62 647.4,-111.25"/>
<polygon fill="black" stroke="black" points="648.74,-114.5 657.19,-108.11 646.6,-107.84 648.74,-114.5"/>
</g>
<!-- [root] aws_s3_bucket_acl.my_new_bucket_acl (expand) -->
<g id="node4" class="node">
<title>[root] aws_s3_bucket_acl.my_new_bucket_acl (expand)</title>
<polygon fill="none" stroke="black" points="346.48,-324 108.48,-324 108.48,-288 346.48,-288 346.48,-324"/>
<text text-anchor="middle" x="227.48" y="-302.3" font-family="Times,serif" font-size="14.00">aws_s3_bucket_acl.my_new_bucket_acl</text>
</g>
<!-- [root] aws_s3_bucket_ownership_controls.s3_bucket_acl_ownership (expand) -->
<g id="node5" class="node">
<title>[root] aws_s3_bucket_ownership_controls.s3_bucket_acl_ownership (expand)</title>
<polygon fill="none" stroke="black" points="424.48,-252 68.48,-252 68.48,-216 424.48,-216 424.48,-252"/>
<text text-anchor="middle" x="246.48" y="-230.3" font-family="Times,serif" font-size="14.00">aws_s3_bucket_ownership_controls.s3_bucket_acl_ownership</text>
</g>
<!-- [root] aws_s3_bucket_acl.my_new_bucket_acl (expand)&#45;&gt;[root] aws_s3_bucket_ownership_controls.s3_bucket_acl_ownership (expand) -->
<g id="edge8" class="edge">
<title>[root] aws_s3_bucket_acl.my_new_bucket_acl (expand)&#45;&gt;[root] aws_s3_bucket_ownership_controls.s3_bucket_acl_ownership (expand)</title>
<path fill="none" stroke="black" d="M232.18,-287.7C234.29,-279.9 236.84,-270.51 239.2,-261.83"/>
<polygon fill="black" stroke="black" points="242.6,-262.67 241.84,-252.1 235.84,-260.84 242.6,-262.67"/>
</g>
<!-- [root] aws_s3_bucket_ownership_controls.s3_bucket_acl_ownership (expand)&#45;&gt;[root] aws_s3_bucket.my&#45;new&#45;S3&#45;bucket (expand) -->
<g id="edge9" class="edge">
<title>[root] aws_s3_bucket_ownership_controls.s3_bucket_acl_ownership (expand)&#45;&gt;[root] aws_s3_bucket.my&#45;new&#45;S3&#45;bucket (expand)</title>
<path fill="none" stroke="black" d="M306.34,-215.97C341.46,-205.97 386,-193.3 422.71,-182.85"/>
<polygon fill="black" stroke="black" points="423.69,-186.21 432.35,-180.11 421.77,-179.48 423.69,-186.21"/>
</g>
<!-- [root] aws_security_group.jenkins_security_group (expand)&#45;&gt;[root] provider[&quot;registry.terraform.io/hashicorp/aws&quot;] -->
<g id="edge10" class="edge">
<title>[root] aws_security_group.jenkins_security_group (expand)&#45;&gt;[root] provider[&quot;registry.terraform.io/hashicorp/aws&quot;]</title>
<path fill="none" stroke="black" d="M273.06,-143.88C290.7,-134 312.98,-121.52 331.46,-111.17"/>
<polygon fill="black" stroke="black" points="333.18,-114.22 340.2,-106.28 329.76,-108.11 333.18,-114.22"/>
</g>
<!-- [root] provider[&quot;registry.terraform.io/hashicorp/local&quot;] -->
<g id="node9" class="node">
<title>[root] provider[&quot;registry.terraform.io/hashicorp/local&quot;]</title>
<polygon fill="none" stroke="black" points="1172.48,-180 915.25,-162 1172.48,-144 1429.71,-162 1172.48,-180"/>
<text text-anchor="middle" x="1172.48" y="-158.3" font-family="Times,serif" font-size="14.00">provider[&quot;registry.terraform.io/hashicorp/local&quot;]</text>
</g>
<!-- [root] local_file.private_key_pem (expand)&#45;&gt;[root] provider[&quot;registry.terraform.io/hashicorp/local&quot;] -->
<g id="edge11" class="edge">
<title>[root] local_file.private_key_pem (expand)&#45;&gt;[root] provider[&quot;registry.terraform.io/hashicorp/local&quot;]</title>
<path fill="none" stroke="black" d="M1081.08,-215.88C1098,-206.09 1119.33,-193.75 1137.13,-183.45"/>
<polygon fill="black" stroke="black" points="1139.17,-186.32 1146.07,-178.28 1135.66,-180.26 1139.17,-186.32"/>
</g>
<!-- [root] local_file.private_key_pem (expand)&#45;&gt;[root] tls_private_key.generated (expand) -->
<g id="edge12" class="edge">
<title>[root] local_file.private_key_pem (expand)&#45;&gt;[root] tls_private_key.generated (expand)</title>
<path fill="none" stroke="black" d="M995.02,-215.97C962.18,-206.06 920.61,-193.51 886.17,-183.12"/>
<polygon fill="black" stroke="black" points="886.77,-179.65 876.19,-180.11 884.75,-186.35 886.77,-179.65"/>
</g>
<!-- [root] provider[&quot;registry.terraform.io/hashicorp/random&quot;] -->
<g id="node10" class="node">
<title>[root] provider[&quot;registry.terraform.io/hashicorp/random&quot;]</title>
<polygon fill="none" stroke="black" points="710.48,-36 438.34,-18 710.48,0 982.62,-18 710.48,-36"/>
<text text-anchor="middle" x="710.48" y="-14.3" font-family="Times,serif" font-size="14.00">provider[&quot;registry.terraform.io/hashicorp/random&quot;]</text>
</g>
<!-- [root] provider[&quot;registry.terraform.io/hashicorp/tls&quot;] -->
<g id="node11" class="node">
<title>[root] provider[&quot;registry.terraform.io/hashicorp/tls&quot;]</title>
<polygon fill="none" stroke="black" points="1045.48,-108 800.99,-90 1045.48,-72 1289.97,-90 1045.48,-108"/>
<text text-anchor="middle" x="1045.48" y="-86.3" font-family="Times,serif" font-size="14.00">provider[&quot;registry.terraform.io/hashicorp/tls&quot;]</text>
</g>
<!-- [root] random_id.randomness (expand)&#45;&gt;[root] provider[&quot;registry.terraform.io/hashicorp/random&quot;] -->
<g id="edge20" class="edge">
<title>[root] random_id.randomness (expand)&#45;&gt;[root] provider[&quot;registry.terraform.io/hashicorp/random&quot;]</title>
<path fill="none" stroke="black" d="M710.48,-71.7C710.48,-63.98 710.48,-54.71 710.48,-46.11"/>
<polygon fill="black" stroke="black" points="713.98,-46.1 710.48,-36.1 706.98,-46.1 713.98,-46.1"/>
</g>
<!-- [root] tls_private_key.generated (expand)&#45;&gt;[root] provider[&quot;registry.terraform.io/hashicorp/tls&quot;] -->
<g id="edge29" class="edge">
<title>[root] tls_private_key.generated (expand)&#45;&gt;[root] provider[&quot;registry.terraform.io/hashicorp/tls&quot;]</title>
<path fill="none" stroke="black" d="M874.48,-143.97C909.95,-132.98 955.88,-118.75 991.21,-107.81"/>
<polygon fill="black" stroke="black" points="992.35,-111.12 1000.87,-104.82 990.28,-104.43 992.35,-111.12"/>
</g>
<!-- [root] output._2&#45;Public_url (expand) -->
<g id="node14" class="node">
<title>[root] output._2&#45;Public_url (expand)</title>
<ellipse fill="none" stroke="black" cx="612.48" cy="-378" rx="139.98" ry="18"/>
<text text-anchor="middle" x="612.48" y="-374.3" font-family="Times,serif" font-size="14.00">[root] output._2&#45;Public_url (expand)</text>
</g>
<!-- [root] output._2&#45;Public_url (expand)&#45;&gt;[root] aws_instance.Jenkins_EC2_Instance (expand) -->
<g id="edge13" class="edge">
<title>[root] output._2&#45;Public_url (expand)&#45;&gt;[root] aws_instance.Jenkins_EC2_Instance (expand)</title>
<path fill="none" stroke="black" d="M579.3,-360.41C560.37,-350.94 536.41,-338.97 515.99,-328.75"/>
<polygon fill="black" stroke="black" points="517.39,-325.54 506.88,-324.2 514.26,-331.8 517.39,-325.54"/>
</g>
<!-- [root] output._3&#45;SSH_ec2_instance (expand) -->
<g id="node15" class="node">
<title>[root] output._3&#45;SSH_ec2_instance (expand)</title>
<ellipse fill="none" stroke="black" cx="939.48" cy="-378" rx="168.97" ry="18"/>
<text text-anchor="middle" x="939.48" y="-374.3" font-family="Times,serif" font-size="14.00">[root] output._3&#45;SSH_ec2_instance (expand)</text>
</g>
<!-- [root] output._3&#45;SSH_ec2_instance (expand)&#45;&gt;[root] aws_instance.Jenkins_EC2_Instance (expand) -->
<g id="edge14" class="edge">
<title>[root] output._3&#45;SSH_ec2_instance (expand)&#45;&gt;[root] aws_instance.Jenkins_EC2_Instance (expand)</title>
<path fill="none" stroke="black" d="M845.82,-362.96C772.28,-351.94 669.44,-336.52 590.32,-324.66"/>
<polygon fill="black" stroke="black" points="590.71,-321.18 580.3,-323.16 589.67,-328.1 590.71,-321.18"/>
</g>
<!-- [root] provider[&quot;registry.terraform.io/hashicorp/aws&quot;] (close) -->
<g id="node16" class="node">
<title>[root] provider[&quot;registry.terraform.io/hashicorp/aws&quot;] (close)</title>
<ellipse fill="none" stroke="black" cx="227.48" cy="-378" rx="227.46" ry="18"/>
<text text-anchor="middle" x="227.48" y="-374.3" font-family="Times,serif" font-size="14.00">[root] provider[&quot;registry.terraform.io/hashicorp/aws&quot;] (close)</text>
</g>
<!-- [root] provider[&quot;registry.terraform.io/hashicorp/aws&quot;] (close)&#45;&gt;[root] aws_instance.Jenkins_EC2_Instance (expand) -->
<g id="edge15" class="edge">
<title>[root] provider[&quot;registry.terraform.io/hashicorp/aws&quot;] (close)&#45;&gt;[root] aws_instance.Jenkins_EC2_Instance (expand)</title>
<path fill="none" stroke="black" d="M285.23,-360.5C320.42,-350.44 365.62,-337.53 402.8,-326.91"/>
<polygon fill="black" stroke="black" points="403.9,-330.23 412.56,-324.12 401.98,-323.5 403.9,-330.23"/>
</g>
<!-- [root] provider[&quot;registry.terraform.io/hashicorp/aws&quot;] (close)&#45;&gt;[root] aws_s3_bucket_acl.my_new_bucket_acl (expand) -->
<g id="edge16" class="edge">
<title>[root] provider[&quot;registry.terraform.io/hashicorp/aws&quot;] (close)&#45;&gt;[root] aws_s3_bucket_acl.my_new_bucket_acl (expand)</title>
<path fill="none" stroke="black" d="M227.48,-359.7C227.48,-351.98 227.48,-342.71 227.48,-334.11"/>
<polygon fill="black" stroke="black" points="230.98,-334.1 227.48,-324.1 223.98,-334.1 230.98,-334.1"/>
</g>
<!-- [root] provider[&quot;registry.terraform.io/hashicorp/local&quot;] (close) -->
<g id="node17" class="node">
<title>[root] provider[&quot;registry.terraform.io/hashicorp/local&quot;] (close)</title>
<ellipse fill="none" stroke="black" cx="1289.48" cy="-306" rx="230.96" ry="18"/>
<text text-anchor="middle" x="1289.48" y="-302.3" font-family="Times,serif" font-size="14.00">[root] provider[&quot;registry.terraform.io/hashicorp/local&quot;] (close)</text>
</g>
<!-- [root] provider[&quot;registry.terraform.io/hashicorp/local&quot;] (close)&#45;&gt;[root] local_file.private_key_pem (expand) -->
<g id="edge17" class="edge">
<title>[root] provider[&quot;registry.terraform.io/hashicorp/local&quot;] (close)&#45;&gt;[root] local_file.private_key_pem (expand)</title>
<path fill="none" stroke="black" d="M1233.38,-288.5C1199.34,-278.49 1155.66,-265.64 1119.63,-255.05"/>
<polygon fill="black" stroke="black" points="1120.27,-251.58 1109.69,-252.12 1118.3,-258.3 1120.27,-251.58"/>
</g>
<!-- [root] provider[&quot;registry.terraform.io/hashicorp/random&quot;] (close) -->
<g id="node18" class="node">
<title>[root] provider[&quot;registry.terraform.io/hashicorp/random&quot;] (close)</title>
<ellipse fill="none" stroke="black" cx="1779.48" cy="-306" rx="241.26" ry="18"/>
<text text-anchor="middle" x="1779.48" y="-302.3" font-family="Times,serif" font-size="14.00">[root] provider[&quot;registry.terraform.io/hashicorp/random&quot;] (close)</text>
</g>
<!-- [root] provider[&quot;registry.terraform.io/hashicorp/random&quot;] (close)&#45;&gt;[root] random_id.randomness (expand) -->
<g id="edge18" class="edge">
<title>[root] provider[&quot;registry.terraform.io/hashicorp/random&quot;] (close)&#45;&gt;[root] random_id.randomness (expand)</title>
<path fill="none" stroke="black" d="M1752.99,-288.08C1697.35,-253.56 1563.18,-175.63 1438.48,-144 1163.01,-74.13 1079.56,-143.62 793.52,-107.99"/>
<polygon fill="black" stroke="black" points="793.63,-104.47 783.26,-106.67 792.74,-111.42 793.63,-104.47"/>
</g>
<!-- [root] provider[&quot;registry.terraform.io/hashicorp/tls&quot;] (close) -->
<g id="node19" class="node">
<title>[root] provider[&quot;registry.terraform.io/hashicorp/tls&quot;] (close)</title>
<ellipse fill="none" stroke="black" cx="819.48" cy="-306" rx="221.76" ry="18"/>
<text text-anchor="middle" x="819.48" y="-302.3" font-family="Times,serif" font-size="14.00">[root] provider[&quot;registry.terraform.io/hashicorp/tls&quot;] (close)</text>
</g>
<!-- [root] provider[&quot;registry.terraform.io/hashicorp/tls&quot;] (close)&#45;&gt;[root] tls_private_key.generated (expand) -->
<g id="edge19" class="edge">
<title>[root] provider[&quot;registry.terraform.io/hashicorp/tls&quot;] (close)&#45;&gt;[root] tls_private_key.generated (expand)</title>
<path fill="none" stroke="black" d="M819.48,-287.87C819.48,-263.67 819.48,-219.21 819.48,-190.39"/>
<polygon fill="black" stroke="black" points="822.98,-190.19 819.48,-180.19 815.98,-190.19 822.98,-190.19"/>
</g>
<!-- [root] root -->
<g id="node20" class="node">
<title>[root] root</title>
<ellipse fill="none" stroke="black" cx="1155.48" cy="-450" rx="47.39" ry="18"/>
<text text-anchor="middle" x="1155.48" y="-446.3" font-family="Times,serif" font-size="14.00">[root] root</text>
</g>
<!-- [root] root&#45;&gt;[root] output._2&#45;Public_url (expand) -->
<g id="edge22" class="edge">
<title>[root] root&#45;&gt;[root] output._2&#45;Public_url (expand)</title>
<path fill="none" stroke="black" d="M1111.04,-443.27C1025.7,-432.27 836.78,-407.92 717.56,-392.55"/>
<polygon fill="black" stroke="black" points="717.68,-389.03 707.31,-391.23 716.78,-395.98 717.68,-389.03"/>
</g>
<!-- [root] root&#45;&gt;[root] output._3&#45;SSH_ec2_instance (expand) -->
<g id="edge23" class="edge">
<title>[root] root&#45;&gt;[root] output._3&#45;SSH_ec2_instance (expand)</title>
<path fill="none" stroke="black" d="M1120.29,-437.6C1087.56,-426.99 1038.13,-410.97 999.22,-398.36"/>
<polygon fill="black" stroke="black" points="1000.16,-394.99 989.57,-395.23 998.01,-401.65 1000.16,-394.99"/>
</g>
<!-- [root] root&#45;&gt;[root] provider[&quot;registry.terraform.io/hashicorp/aws&quot;] (close) -->
<g id="edge25" class="edge">
<title>[root] root&#45;&gt;[root] provider[&quot;registry.terraform.io/hashicorp/aws&quot;] (close)</title>
<path fill="none" stroke="black" d="M1109.46,-445.53C981.12,-435.85 614.37,-408.18 396.32,-391.74"/>
<polygon fill="black" stroke="black" points="396.28,-388.22 386.05,-390.96 395.76,-395.2 396.28,-388.22"/>
</g>
<!-- [root] root&#45;&gt;[root] provider[&quot;registry.terraform.io/hashicorp/local&quot;] (close) -->
<g id="edge26" class="edge">
<title>[root] root&#45;&gt;[root] provider[&quot;registry.terraform.io/hashicorp/local&quot;] (close)</title>
<path fill="none" stroke="black" d="M1160.4,-431.83C1166.65,-412.5 1179.01,-381.03 1198.48,-360 1210.1,-347.44 1225.39,-336.99 1240.1,-328.77"/>
<polygon fill="black" stroke="black" points="1241.98,-331.74 1249.15,-323.94 1238.68,-325.56 1241.98,-331.74"/>
</g>
<!-- [root] root&#45;&gt;[root] provider[&quot;registry.terraform.io/hashicorp/random&quot;] (close) -->
<g id="edge27" class="edge">
<title>[root] root&#45;&gt;[root] provider[&quot;registry.terraform.io/hashicorp/random&quot;] (close)</title>
<path fill="none" stroke="black" d="M1169.15,-432.35C1189.89,-407.19 1227.34,-362.16 1231.48,-360 1248.3,-351.24 1455.03,-332.96 1609.64,-320.34"/>
<polygon fill="black" stroke="black" points="1610.06,-323.81 1619.75,-319.51 1609.5,-316.84 1610.06,-323.81"/>
</g>
<!-- [root] root&#45;&gt;[root] provider[&quot;registry.terraform.io/hashicorp/tls&quot;] (close) -->
<g id="edge28" class="edge">
<title>[root] root&#45;&gt;[root] provider[&quot;registry.terraform.io/hashicorp/tls&quot;] (close)</title>
<path fill="none" stroke="black" d="M1153.13,-431.99C1149.37,-411.58 1139.97,-377.88 1117.48,-360 1094.39,-341.65 1034.26,-329.2 974,-321.01"/>
<polygon fill="black" stroke="black" points="974.32,-317.52 963.94,-319.68 973.4,-324.46 974.32,-317.52"/>
</g>
<!-- [root] output._1&#45;Jenkins&#45;project (expand) -->
<g id="node21" class="node">
<title>[root] output._1&#45;Jenkins&#45;project (expand)</title>
<ellipse fill="none" stroke="black" cx="1397.48" cy="-378" rx="157.07" ry="18"/>
<text text-anchor="middle" x="1397.48" y="-374.3" font-family="Times,serif" font-size="14.00">[root] output._1&#45;Jenkins&#45;project (expand)</text>
</g>
<!-- [root] root&#45;&gt;[root] output._1&#45;Jenkins&#45;project (expand) -->
<g id="edge21" class="edge">
<title>[root] root&#45;&gt;[root] output._1&#45;Jenkins&#45;project (expand)</title>
<path fill="none" stroke="black" d="M1191.97,-438.44C1229.12,-427.7 1287.5,-410.81 1332.56,-397.78"/>
<polygon fill="black" stroke="black" points="1333.61,-401.12 1342.25,-394.98 1331.67,-394.39 1333.61,-401.12"/>
</g>
<!-- [root] output._4&#45;Initial_Command (expand) -->
<g id="node22" class="node">
<title>[root] output._4&#45;Initial_Command (expand)</title>
<ellipse fill="none" stroke="black" cx="1739.48" cy="-378" rx="166.27" ry="18"/>
<text text-anchor="middle" x="1739.48" y="-374.3" font-family="Times,serif" font-size="14.00">[root] output._4&#45;Initial_Command (expand)</text>
</g>
<!-- [root] root&#45;&gt;[root] output._4&#45;Initial_Command (expand) -->
<g id="edge24" class="edge">
<title>[root] root&#45;&gt;[root] output._4&#45;Initial_Command (expand)</title>
<path fill="none" stroke="black" d="M1200.34,-443.62C1289.75,-432.91 1492.74,-408.57 1622.55,-393.02"/>
<polygon fill="black" stroke="black" points="1623.03,-396.48 1632.54,-391.82 1622.2,-389.53 1623.03,-396.48"/>
</g>
</g>
</svg>
